 <svg  version="1.0" xmlns="http://www.w3.org/2000/svg"  width="900.000000pt" height="900.000000pt" viewBox="0 0 900.000000 900.000000"  preserveAspectRatio="xMidYMid meet">  <g transform="translate(0.000000,900.000000) scale(0.100000,-0.100000)" fill="#ffffff" stroke="none"> <path d="M4486 6485 c-10 -28 -8 -1627 3 -1638 7 -7 15 -6 26 3 13 11 15 104 15 815 0 442 -3 810 -6 819 -8 20 -30 21 -38 1z"/> <path d="M2990 5750 c-156 -29 -302 -41 -420 -35 -69 4 -134 8 -145 11 -11 2 -27 0 -35 -6 -26 -17 2 -44 57 -55 28 -5 57 -16 66 -23 60 -50 82 -199 82 -545 l0 -247 93 0 92 0 0 404 0 404 33 5 c17 3 73 13 122 23 116 22 342 29 415 14 67 -15 163 -46 193 -63 150 -84 261 -238 297 -412 23 -113 24 -186 1 -273 -12 -45 -21 -86 -21 -92 0 -7 33 -10 97 -8 l97 3 13 50 c17 66 11 291 -10 361 -25 84 -77 185 -124 243 -46 57 -144 135 -203 162 -166 77 -192 82 -440 85 -118 1 -235 -1 -260 -6z"/> <path d="M5545 5754 c-160 -38 -283 -91 -372 -159 -45 -35 -129 -128 -144 -160 -5 -11 -13 -27 -18 -35 -39 -63 -46 -96 -45 -220 0 -120 2 -128 32 -190 17 -36 46 -82 64 -102 l33 -37 157 -3 c113 -2 161 1 169 9 10 10 8 14 -7 19 -116 40 -222 119 -270 203 -25 42 -27 55 -27 156 -1 105 1 113 31 170 68 127 188 227 319 266 37 11 84 25 103 30 75 22 396 1 457 -29 10 -5 36 -18 58 -28 100 -47 185 -131 236 -234 22 -44 35 -60 47 -58 11 2 17 13 16 31 0 15 -1 83 -2 152 -2 112 -4 125 -19 125 -10 0 -38 6 -63 14 -219 69 -277 78 -515 82 -121 1 -229 1 -240 -2z"/> <path d="M3305 4686 c-16 -12 -19 -29 -20 -127 -1 -63 3 -120 8 -126 14 -19 45 2 49 34 3 25 8 28 58 35 43 6 61 15 83 38 31 35 34 60 10 100 -29 50 -144 78 -188 46z m137 -63 c39 -35 4 -76 -63 -71 -40 3 -44 6 -47 31 -2 16 -1 35 2 43 8 20 85 18 108 -3z"/> <path d="M3685 4682 c-38 -19 -45 -30 -45 -67 0 -34 40 -75 74 -75 12 0 33 -8 48 -18 22 -15 24 -20 14 -35 -14 -19 -80 -24 -91 -7 -11 18 -45 11 -45 -9 0 -42 81 -65 144 -41 34 13 60 54 52 84 -7 28 -57 60 -109 70 -31 6 -37 11 -37 33 0 26 1 26 59 20 44 -5 62 -3 70 7 13 15 10 18 -38 43 -30 16 -58 15 -96 -5z"/> <path d="M5516 4687 c-15 -11 -18 -30 -20 -127 -1 -82 3 -117 12 -127 18 -18 165 -18 180 0 20 24 -3 36 -73 39 -65 3 -70 5 -73 27 -5 34 12 45 67 42 36 -2 50 2 54 13 9 22 -10 30 -68 31 -47 0 -50 2 -50 25 0 24 3 25 65 28 68 3 85 14 69 44 -8 15 -22 18 -77 18 -41 0 -75 -5 -86 -13z"/> <path d="M4058 4683 c-10 -2 -18 -11 -18 -19 0 -7 -13 -37 -29 -66 -15 -29 -32 -64 -36 -78 -4 -13 -14 -30 -22 -38 -18 -18 -13 -56 8 -60 10 -2 25 11 39 33 22 35 24 36 78 33 50 -3 57 -6 72 -32 18 -34 29 -39 49 -27 11 7 9 19 -13 64 -14 31 -26 61 -26 66 0 6 -4 11 -10 11 -5 0 -10 6 -10 13 0 19 -44 100 -55 103 -5 1 -18 0 -27 -3z m44 -112 c16 -39 16 -39 -10 -44 -35 -7 -52 1 -52 26 0 20 26 57 40 57 4 0 14 -18 22 -39z"/> <path d="M4335 4673 c-10 -27 6 -237 19 -245 16 -11 148 -10 165 1 8 5 11 16 8 25 -5 12 -21 16 -72 16 l-66 0 2 98 c1 54 -1 104 -5 110 -11 18 -43 14 -51 -5z"/> <path d="M4666 4678 c-3 -7 -4 -67 -3 -133 2 -113 3 -120 22 -120 18 0 20 7 20 72 0 78 9 100 24 60 5 -14 15 -28 20 -32 6 -3 11 -13 11 -22 0 -16 27 -42 45 -43 6 0 21 25 34 55 36 81 54 69 44 -29 l-6 -56 32 0 32 0 -3 123 -3 122 -26 3 c-22 3 -29 -4 -48 -45 -35 -75 -51 -103 -60 -103 -13 0 -32 26 -67 93 -31 60 -59 83 -68 55z"/> <path d="M5103 4678 c-5 -7 -10 -66 -10 -130 l-1 -118 29 0 c27 0 28 2 31 53 l3 52 58 3 57 3 0 -56 c0 -54 0 -55 30 -55 l30 0 0 125 c0 103 -3 127 -15 131 -28 11 -48 -17 -42 -58 4 -33 2 -39 -17 -44 -13 -3 -40 -4 -62 -2 -39 3 -39 3 -44 53 -5 51 -26 70 -47 43z"/> <path d="M2601 4250 c-4 -3 -7 -90 -7 -195 0 -213 -17 -382 -45 -437 -24 -48 -60 -71 -118 -78 -37 -4 -46 -9 -46 -24 0 -18 12 -19 296 -19 162 0 301 3 308 7 21 13 -8 36 -46 36 -43 0 -86 22 -110 57 -37 54 -47 128 -53 397 l-5 260 -83 0 c-46 1 -87 -1 -91 -4z"/> <path d="M4474 4248 c-4 -6 -9 -341 -12 -743 -4 -670 -3 -732 12 -738 47 -18 45 -43 48 736 2 403 1 738 -1 745 -4 15 -37 16 -47 0z"/> <path d="M6280 4243 c0 -8 14 -32 32 -54 45 -56 61 -102 65 -193 5 -80 0 -101 -46 -194 -39 -82 -188 -211 -273 -237 -12 -4 -27 -11 -33 -15 -5 -4 -29 -11 -52 -15 -24 -4 -45 -11 -49 -16 -9 -14 -246 -11 -307 5 -133 35 -217 75 -329 158 -89 65 -216 203 -252 273 -37 70 -52 83 -71 64 -11 -11 -12 -29 -4 -89 5 -41 8 -105 7 -142 -2 -36 -1 -68 2 -70 15 -12 196 -121 214 -129 11 -5 28 -13 36 -18 76 -45 241 -96 360 -112 105 -14 336 -3 375 17 15 8 36 14 47 14 11 0 49 14 85 30 35 17 66 30 69 30 8 0 110 74 149 108 43 39 122 135 136 167 5 11 13 27 18 35 26 45 35 96 39 209 3 114 -7 180 -27 181 -138 9 -191 7 -191 -7z"/> </g> </svg> 